<?xml version="1.0" encoding="UTF-8"?>
<!DOCTYPE svg PUBLIC "-//W3C//DTD SVG 1.1//EN" "http://www.w3.org/Graphics/SVG/1.1/DTD/svg11.dtd">
<svg xmlns="http://www.w3.org/2000/svg" version="1.1" width="1200px" height="240px" style="shape-rendering:geometricPrecision; text-rendering:geometricPrecision; image-rendering:optimizeQuality; fill-rule:evenodd; clip-rule:evenodd" xmlns:xlink="http://www.w3.org/1999/xlink">
<g><path style="opacity:0.958" fill="#fdd202" d="M 607.5,0.5 C 624.056,0.146758 639.723,3.64676 654.5,11C 655.99,11.7455 656.99,12.9121 657.5,14.5C 653.606,37.5296 649.606,60.5296 645.5,83.5C 639.117,72.6138 630.117,64.7805 618.5,60C 609.424,57.9531 602.257,60.7865 597,68.5C 595.959,73.4398 596.626,78.1065 599,82.5C 609.026,91.8613 619.026,101.195 629,110.5C 642.498,130.349 645.164,151.682 637,174.5C 622.912,214.302 594.745,235.302 552.5,237.5C 537.108,236.989 522.441,233.489 508.5,227C 512.982,203.277 516.982,179.444 520.5,155.5C 521.675,155.281 522.675,155.614 523.5,156.5C 531.415,172.792 544.415,180.292 562.5,179C 575.903,174.004 579.069,165.17 572,152.5C 563.143,144.733 554.477,136.733 546,128.5C 530.619,107.696 527.286,85.0292 536,60.5C 548.51,26.8097 572.343,6.80969 607.5,0.5 Z"/></g>
<g><path style="opacity:0.966" fill="#fdfffd" d="M 91.5,5.5 C 117.167,5.5 142.833,5.5 168.5,5.5C 172.759,81.5009 177.093,157.501 181.5,233.5C 159.5,233.5 137.5,233.5 115.5,233.5C 115.5,223.5 115.5,213.5 115.5,203.5C 102.453,203.299 89.4532,203.966 76.5,205.5C 73.26,214.389 69.9267,223.222 66.5,232C 47.2006,233.574 27.8673,233.908 8.5,233C 6.09951,232.814 3.76618,232.314 1.5,231.5C 31.7036,156.217 61.7036,80.8841 91.5,5.5 Z M 117.5,71.5 C 118.693,71.9704 119.36,72.9704 119.5,74.5C 117.711,101.132 116.711,127.799 116.5,154.5C 108.791,154.731 101.124,154.398 93.5,153.5C 102.121,126.348 110.121,99.0147 117.5,71.5 Z"/></g>
<g><path style="opacity:0.967" fill="#fdfffd" d="M 222.5,5.5 C 249.169,5.33336 275.835,5.50003 302.5,6C 353.835,12.4876 373.668,40.9876 362,91.5C 353.631,131.443 329.131,153.609 288.5,158C 279.528,159.04 270.528,159.54 261.5,159.5C 258.141,183.844 254.641,208.177 251,232.5C 229.909,233.494 208.742,233.827 187.5,233.5C 198.951,157.464 210.617,81.4635 222.5,5.5 Z M 278.5,55.5 C 292.254,55.5837 299.587,62.5837 300.5,76.5C 298.375,93.2895 289.042,103.29 272.5,106.5C 271.833,106.167 271.167,105.833 270.5,105.5C 273.382,88.8718 276.049,72.2052 278.5,55.5 Z"/></g>
<g><path style="opacity:0.966" fill="#fdfffd" d="M 386.5,5.5 C 413.169,5.33336 439.835,5.50003 466.5,6C 488.362,7.01464 506.195,15.848 520,32.5C 529.414,52.4706 531.08,73.1373 525,94.5C 515.969,131.028 492.802,152.028 455.5,157.5C 445.495,158.501 435.495,159.501 425.5,160.5C 421.508,184.785 417.841,209.118 414.5,233.5C 393.167,233.5 371.833,233.5 350.5,233.5C 362.408,157.477 374.408,81.4771 386.5,5.5 Z M 441.5,55.5 C 459.155,56.1422 466.322,65.1422 463,82.5C 459.629,97.6186 450.129,105.285 434.5,105.5C 437.206,88.8898 439.54,72.2232 441.5,55.5 Z"/></g>
<g><path style="opacity:0.97" fill="#fdd202" d="M 668.5,5.5 C 712.5,5.5 756.5,5.5 800.5,5.5C 797.979,24.1449 795.646,42.8116 793.5,61.5C 781.082,60.8659 768.916,61.5325 757,63.5C 747.839,120.129 739.006,176.796 730.5,233.5C 709.167,233.5 687.833,233.5 666.5,233.5C 675.392,176.484 684.392,119.484 693.5,62.5C 682.514,61.7905 671.514,61.4572 660.5,61.5C 663.075,42.8075 665.742,24.1408 668.5,5.5 Z"/></g>
<g><path style="opacity:0.966" fill="#fdd202" d="M 833.5,5.5 C 859.167,5.5 884.833,5.5 910.5,5.5C 914.907,81.4939 919.24,157.494 923.5,233.5C 901.5,233.5 879.5,233.5 857.5,233.5C 857.612,223.491 857.945,213.491 858.5,203.5C 845.13,203.438 831.796,204.105 818.5,205.5C 815.457,214.798 812.124,223.965 808.5,233C 789.833,233.667 771.167,233.667 752.5,233C 749.447,232.821 746.447,232.321 743.5,231.5C 773.704,156.217 803.704,80.8841 833.5,5.5 Z M 859.5,74.5 C 860.165,78.1515 860.499,81.9848 860.5,86C 859.489,108.825 858.822,131.658 858.5,154.5C 850.429,154.863 842.429,154.363 834.5,153C 843.536,127.057 851.87,100.891 859.5,74.5 Z"/></g>
<g><path style="opacity:0.97" fill="#fdd202" d="M 937.5,5.5 C 981.507,5.28578 1025.51,5.61911 1069.5,6.5C 1066.51,24.783 1063.84,43.1164 1061.5,61.5C 1049.5,61.5 1037.5,61.5 1025.5,61.5C 1016.82,118.555 1007.82,175.555 998.5,232.5C 977.511,233.5 956.511,233.833 935.5,233.5C 944.26,176.18 952.927,118.846 961.5,61.5C 950.462,61.7653 939.462,61.432 928.5,60.5C 931.394,42.1386 934.394,23.8052 937.5,5.5 Z"/></g>
<g><path style="opacity:0.966" fill="#fdd202" d="M 1079.5,5.5 C 1118.5,5.5 1157.5,5.5 1196.5,5.5C 1193.72,23.5418 1190.72,41.5418 1187.5,59.5C 1170.16,60.2963 1152.83,61.1297 1135.5,62C 1133.24,71.3658 1131.58,80.8658 1130.5,90.5C 1146.17,90.5 1161.83,90.5 1177.5,90.5C 1174.87,108.762 1171.87,126.928 1168.5,145C 1152.84,145.5 1137.17,145.667 1121.5,145.5C 1119.74,156.486 1118.07,167.486 1116.5,178.5C 1133.83,178.5 1151.17,178.5 1168.5,178.5C 1166.31,196.831 1163.31,214.998 1159.5,233C 1121.17,233.5 1082.83,233.667 1044.5,233.5C 1056.17,157.501 1067.83,81.5012 1079.5,5.5 Z"/></g>
</svg>
